<?xml version="1.0" encoding="utf-8"?>
<!-- Generator: Adobe Illustrator 24.3.0, SVG Export Plug-In . SVG Version: 6.00 Build 0)  -->
<svg version="1.1" id="Layer_1" xmlns="http://www.w3.org/2000/svg" xmlns:xlink="http://www.w3.org/1999/xlink" x="0px" y="0px"
	 viewBox="0 0 1920 1080" style="enable-background:new 0 0 1920 1080;" xml:space="preserve">
<style type="text/css">
	.st0{fill:#F7931E;}
	.st1{fill:#FFFFFF;}
	.st2{fill:#FFFFFF;stroke:#F7931E;stroke-width:4;stroke-miterlimit:10;}
</style>
<rect class="st0" width="1920" height="1080"/>
<path class="st1" d="M1278.76,702.47c-14,22.62-42.89,30.62-71.24,38.04c-0.83,0.57-1.29-1.08-0.33-1
	c13.99-3.49,24.66-10.21,33.2-20.35c9.38-10.58,13.72-25.12,22.36-35.2c3.81-4.66,11.97-4.52,15.85-0.5
	C1283.53,688.76,1281.62,695.62,1278.76,702.47z"/>
<path class="st2" d="M834.4,658.9c-28.48-2.82-56.47-7.01-83.47-16.39C658.12,610.27,595.56,547,565.51,454.28
	c-31.48-97.13-16.44-189.06,44.58-271.18c52.69-70.91,125.17-108.63,213.36-114.77c67.71-4.72,130.4,11.35,186.95,49.44
	c8.39,5.65,16.28,12.1,23.97,18.69c16.19,13.86,19.79,20.72,21.34,18.94c21.67-24.7,68.37-76.17,124.58-74.86
	c34.82,0.81,73.38,35.08,72.08,67.98c-0.69,17.58-12.92,40.34-31.52,44.52c-35.86,8.07-67.03-63.4-114.96-61.05
	c-20.68,1.01-31.87,20.62-42.47,31.78c66.39,80.49,96.37,179.7,66.39,279.6c-35.98,119.88-119.33,190.7-241.47,215.12
	c-71.37,14.27-143.82,23.1-214.93,38.67c-31.69,6.94-68.86,17.41-98.38,38.46c-23.61,16.83-40.24,38.61-44.83,67.88
	c-5.37,34.21,8.61,59.38,40.37,73.44c33.61,14.88,68.84,16.05,104.54,11.18c38.49-5.24,74.29-18.98,107.1-39.09
	c38.67-23.71,76.14-49.4,113.89-74.59c32.43-21.64,64.88-43.19,101.28-57.84c49.63-19.97,99.73-23.53,150.17-3.11
	c97.37,39.41,109.23,156.24,40.94,220.38c-44.01,41.33-97.18,54.77-156.05,46.7c-73.2-10.03-129.76-49.96-173.63-109.96
	c-0.81-1.11-1.66-2.2-3.2-4.23c-2.06,2.86-6.71,11.19-8.47,13.7c-23.77,33.71-51.52,63.09-88.6,82.64
	c-65.58,34.58-161.86,26.1-218.1-33.06c-59.61-62.7-50.67-160.32,23.43-205.19c36.13-21.88,70.76-33.35,109.63-39.96
	c50.42-8.58,101.03-16.05,151.56-24.01C828.18,660.03,831.29,659.44,834.4,658.9z M609.54,274.46
	c-6.62,102.83,29.81,200.75,104.8,275.26c143.14,153.43,390.96,91.44,364.02-138.83c-13.63-144.39-121.04-293.64-274.74-313.37
	C693.16,80.95,609.64,167.3,609.54,274.46z M1022.55,967.8c5.76,0.05,15.46,0.64,25.1,0.11c27.75-1.52,52.06-15.56,72.29-35.41
	c29.23-28.67,38.35-64.35,33.32-103.86c-8-62.76-58.89-106.53-121.74-105.44c-30,0.52-55.98,12.3-79.6,29.8
	c-38.27,28.35-65.78,66.03-90.75,105.81c-0.86,1.37-0.46,4.48,0.56,5.92c4.81,6.75,9.77,13.43,15.16,19.71
	C914.07,927.81,961.23,960.81,1022.55,967.8z"/>
<path class="st1" d="M1384.66,812.11c-4.72,4.54-10.27,6.81-16.66,6.81c-7.41,0-13.12-1.68-17.16-5.05
	c-4.04-3.36-6.06-7.4-6.06-12.12c0-2.69,0.33-4.87,1.01-6.56c0.67-1.68,1.43-3.19,2.27-4.54c0.84-1.34,1.59-2.69,2.27-4.04
	c0.67-1.34,1.01-3.03,1.01-5.05c0-4.37-1.35-7.65-4.04-9.84c-2.7-2.19-5.89-3.28-9.59-3.28c-2.02,0-4.38,0.34-7.07,1.01
	c-2.7,0.68-5.47,2.36-8.33,5.05c-2.86,2.7-5.81,6.56-8.83,11.61c-3.03,5.05-5.89,12.12-8.58,21.2v170.12c0,1.35,1.01,2.02,3.03,2.02
	h27.76c0.67,0,1.01,0.34,1.01,1.01c0,0.68-0.34,1.01-1.01,1.01h-107.02c-0.68,0-1.01-0.33-1.01-1.01c0-0.67,0.33-1.01,1.01-1.01
	h27.76c2.02,0,3.03-0.67,3.03-2.02V769.95c0-1.01-1.01-1.51-3.03-1.51h-27.76c-0.68,0-1.01-0.33-1.01-1.01
	c0-0.67,0.33-1.01,1.01-1.01h74.71c1.01,0,1.51,0.51,1.51,1.52v33.32c4.71-14.47,10.93-24.65,18.68-30.54
	c7.74-5.89,16.99-8.83,27.76-8.83c11.78,0,21.45,2.95,29.03,8.83c7.57,5.89,11.36,14.22,11.36,24.99
	C1391.73,802.09,1389.37,807.56,1384.66,812.11z"/>
<path class="st1" d="M1600.05,712.35c-2.87,3.51-6.39,5.26-10.53,5.26c-4.47,0-7.97-1.27-10.53-3.83c-2.56-2.55-3.83-5.1-3.83-7.65
	c0-3.51,0.64-5.74,1.91-6.7c1.27-0.96,1.91-2.71,1.91-5.26c0-2.55-0.8-4.46-2.39-5.74c-1.6-1.27-3.67-1.91-6.22-1.91
	c-1.6,0-3.51,0.24-5.74,0.72c-2.23,0.48-4.54,1.52-6.94,3.11c-2.39,1.6-7.39,5.78-10.24,8.53c-2.82,2.72-6.78,5.65-10,11.08
	c4.78,6.38,8.61,13.56,11.48,21.53c2.87,7.98,4.3,16.27,4.3,24.88c0,10.52-2.08,20.5-6.22,29.9c-4.15,9.41-9.81,17.63-16.98,24.64
	c-7.18,7.02-15.55,12.52-25.12,16.5c-9.57,3.99-19.78,5.98-30.62,5.98c-12.13,0-23.37-2.55-33.73-7.65
	c-10.37-5.1-19.22-11.8-26.55-20.09c-4.47,3.19-8.21,7.18-11.24,11.96c-3.04,4.78-4.54,11.48-4.54,20.09
	c0,13.72,3.27,23.13,9.81,28.22c6.53,5.1,17.94,7.66,34.21,7.66h55.02c31.89,0,55.73,5.74,71.52,17.22
	c15.79,11.48,23.68,30.62,23.68,57.41c0,14.99-3.59,28.06-10.76,39.23c-7.18,11.16-16.35,20.57-27.51,28.23
	c-11.17,7.65-23.52,13.4-37.08,17.22c-13.56,3.83-26.71,5.74-39.47,5.74c-16.26,0-31.1-1.76-44.49-5.26
	c-13.39-3.51-24.8-8.21-34.21-14.11c-9.41-5.91-16.74-12.84-22.01-20.81c-5.26-7.98-7.89-16.43-7.89-25.35
	c0-6.7,1.27-13.32,3.83-19.85c2.55-6.54,5.98-12.68,10.28-18.42c4.31-5.74,9.4-10.69,15.31-14.83c5.9-4.15,12.36-7.18,19.37-9.09
	c-26.15-7.34-39.23-23.28-39.23-47.84c0-14.35,2.95-25.91,8.85-34.68c5.9-8.77,14.43-16.82,25.59-24.16
	c-5.43-6.38-9.65-13.64-12.68-21.77c-3.04-8.13-4.54-16.82-4.54-26.07c0-10.53,2.07-20.49,6.22-29.9c4.14-9.4,9.81-17.54,16.98-24.4
	c7.18-6.86,15.47-12.27,24.88-16.26c9.4-3.99,19.53-5.98,30.38-5.98c12.75,0,24.32,2.47,34.68,7.41
	c10.36,4.95,19.21,12.04,26.55,21.29c6.27-8.52,15.14-15.15,21.68-20.57c6.53-5.42,14.43-8.13,23.68-8.13
	c5.74,0,11.08,1.67,16.02,5.02c4.94,3.35,7.42,8.69,7.42,16.03C1604.35,705.02,1602.92,708.85,1600.05,712.35z M1564.5,947.01
	c-2.39-6.54-5.91-12.36-10.53-17.46c-4.63-5.1-10.29-9.09-16.98-11.96c-6.7-2.87-14.52-4.31-23.44-4.31h-75.59
	c-6.06,0-11.48-0.64-16.27-1.91c-6.06,3.83-11,10.44-14.83,19.85c-3.83,9.4-5.74,21.29-5.74,35.64c0,25.51,6.62,43.61,19.86,54.3
	c13.23,10.68,32.13,16.03,56.69,16.03c11.48,0,22.64-1.44,33.49-4.31c10.84-2.87,20.49-7.18,28.94-12.92
	c8.45-5.74,15.23-12.92,20.33-21.53c5.1-8.61,7.66-18.66,7.66-30.14C1568.09,960.65,1566.89,953.55,1564.5,947.01z M1510.2,712.83
	c-2.23-10.84-6.06-18.82-11.48-23.92c-3.51-3.18-7.18-5.26-11-6.22c-3.83-0.96-8.3-1.43-13.4-1.43c-4.78,0-9.09,0.48-12.92,1.43
	c-3.83,0.96-7.5,3.04-11,6.22c-5.43,5.1-9.25,13.08-11.48,23.92c-2.24,10.85-3.35,25.36-3.35,43.54c0,10.21,0.24,18.98,0.72,26.31
	c0.48,7.34,1.35,13.63,2.63,18.9c1.27,5.26,2.87,9.57,4.78,12.92c1.91,3.35,4.14,6.3,6.7,8.85c3.51,3.19,7.18,5.34,11,6.46
	c3.83,1.12,8.13,1.68,12.92,1.68c5.1,0,9.57-0.55,13.4-1.68c3.83-1.11,7.49-3.27,11-6.46c2.55-2.55,4.78-5.5,6.7-8.85
	c1.91-3.35,3.42-7.65,4.54-12.92c1.11-5.26,1.99-11.56,2.63-18.9c0.64-7.34,0.96-16.1,0.96-26.31
	C1513.55,738.19,1512.42,723.68,1510.2,712.83z"/>
<path class="st1" d="M1626.93,870.17h-18.65c-1.58,0-2.37-0.45-2.37-1.36v-140.7c0-0.68-0.23-1.02-0.68-1.02h-50.52
	c-0.46,0-0.68,0.23-0.68,0.68c0,0.46,0.22,0.68,0.68,0.68h18.65c1.36,0,2.03,0.46,2.03,1.36v139.01c0,0.91-0.68,1.36-2.03,1.36
	h-18.65c-0.46,0-0.68,0.23-0.68,0.68c0,0.46,0.22,0.68,0.68,0.68h72.22c0.45,0,0.68-0.22,0.68-0.68
	C1627.61,870.4,1627.38,870.17,1626.93,870.17z"/>
<path class="st1" d="M1756.49,977.79c-5.06,3.42-11.42,5.13-19.07,5.13c-8.75,0-16.07-2.46-21.94-7.38
	c-5.88-4.92-9.5-11.34-10.87-19.28c-2.74,8.75-8.27,15.38-16.61,19.89c-8.34,4.51-17.98,6.77-28.91,6.77
	c-6.84,0-13.54-0.76-20.1-2.25c-6.56-1.5-12.51-3.9-17.84-7.18c-5.33-3.28-9.64-7.65-12.92-13.13c-3.28-5.47-4.92-12.3-4.92-20.51
	c0-10.66,2.05-19.34,6.15-26.04c4.1-6.7,9.02-11.89,14.77-15.59c5.74-3.69,11.62-6.22,17.64-7.59c6.01-1.37,11.07-2.32,15.18-2.87
	c5.74-0.54,11.28-1.09,16.61-1.64c5.33-0.54,10.18-1.23,14.56-2.05c4.37-0.82,7.86-1.91,10.46-3.28c2.6-1.36,3.9-3.14,3.9-5.33
	v-31.17c0-8.2-0.82-14.97-2.46-20.3c-1.64-5.33-3.83-9.64-6.56-12.92c-2.74-3.28-5.88-5.54-9.43-6.77
	c-3.56-1.23-7.11-1.85-10.66-1.85c-5.2,0-9.64,1.58-13.33,4.72c-3.69,3.15-5.54,8.27-5.54,15.38c0,3.28,0.54,5.88,1.64,7.79
	c1.09,1.92,1.64,4.51,1.64,7.79c0,3.83-1.44,7.18-4.31,10.05c-2.87,2.87-7.59,4.31-14.15,4.31c-6.02,0-10.32-1.91-12.92-5.74
	c-2.6-3.83-3.9-8.06-3.9-12.71c0-3.55,1.16-7.31,3.49-11.28c2.32-3.96,5.67-7.59,10.05-10.87c4.37-3.28,9.7-5.95,16-8
	c6.29-2.05,13.39-3.08,21.33-3.08c21.05,0,37.32,5.95,48.81,17.84c11.48,11.89,17.23,30.7,17.23,56.39v88.18
	c0,9.3,3.55,13.94,10.66,13.94c3.55,0,6.7-1.23,9.43-3.69c2.73-2.46,4.37-4.78,4.92-6.97c0.27-0.54,0.68-0.75,1.23-0.62
	c0.54,0.14,0.68,0.48,0.41,1.03C1764.75,970.76,1761.54,974.38,1756.49,977.79z M1702.55,880.8c-4.65,3.01-10.6,4.86-17.84,5.54
	c-7.25,0.68-13.88,1.71-19.89,3.08c-3.28,0.55-6.5,1.71-9.64,3.48c-3.15,1.78-5.88,4.58-8.2,8.41c-2.33,3.83-4.17,8.89-5.54,15.17
	c-1.37,6.29-2.05,14.09-2.05,23.38c0,8.75,0.82,15.79,2.46,21.12c1.64,5.33,3.76,9.37,6.36,12.1c2.6,2.74,5.47,4.51,8.61,5.33
	c3.14,0.82,6.36,1.23,9.64,1.23c10.11,0,18.66-2.87,25.63-8.61c6.97-5.74,10.46-12.44,10.46-20.1V880.8z"/>
<g>
	<path class="st1" d="M1101.52,834.93l-118.25,0v10.34c0,12.4,0.27,23.02,0.83,31.84c0.55,8.82,1.51,16.33,2.89,22.53
		c1.38,6.2,3.17,11.37,5.38,15.5c2.2,4.13,4.96,7.72,8.27,10.75c3.86,3.59,8.2,6.07,13.02,7.44c4.82,1.38,9.99,2.07,15.5,2.07
		c14.88,0,28.11-3.51,39.69-10.54c11.58-7.03,20.94-16.33,28.11-27.91c0.27-0.27,0.62-0.34,1.03-0.21c0.41,0.14,0.48,0.48,0.21,1.03
		c-7.72,11.85-17.51,21.36-29.35,28.53c-11.85,7.17-25.08,10.75-39.69,10.75c-11.85,0-22.95-2.42-33.28-7.24
		c-10.34-4.82-19.3-11.37-26.87-19.64c-7.58-8.27-13.58-17.99-17.98-29.15c-4.41-11.16-6.62-23.08-6.62-35.76
		c0-12.67,2.2-24.6,6.62-35.76c4.41-11.16,10.4-20.88,17.98-29.15c7.58-8.27,16.54-14.81,26.87-19.64
		c10.34-4.82,21.43-7.24,33.28-7.24c12.95,0,24.04,2.76,33.28,8.27c9.23,5.52,16.88,12.27,22.95,20.26
		c6.06,8,10.47,16.68,13.23,26.05c2.75,9.37,4.13,17.92,4.13,25.63C1102.76,834.52,1102.34,834.93,1101.52,834.93z M1062.86,789.45
		c-2.07-11.02-5.45-19.29-10.13-24.81c-3.31-3.58-6.89-6.06-10.75-7.44c-3.86-1.38-8.13-2.07-12.82-2.07
		c-5.52,0-10.68,0.69-15.5,2.07c-4.83,1.38-9.17,3.86-13.02,7.44c-5.79,5.52-9.92,13.79-12.4,24.81c-2.48,11.03-4,25.63-4.55,43.83
		l83.1,0C1066.23,815.09,1064.93,800.48,1062.86,789.45z"/>
</g>
</svg>
