<?xml version="1.0" encoding="utf-8"?>
<!-- Generator: Adobe Illustrator 24.3.0, SVG Export Plug-In . SVG Version: 6.00 Build 0)  -->
<svg version="1.1" id="Layer_1" xmlns="http://www.w3.org/2000/svg" xmlns:xlink="http://www.w3.org/1999/xlink" x="0px" y="0px"
	 viewBox="0 0 1290 2796" style="enable-background:new 0 0 1290 2796;" xml:space="preserve">
<style type="text/css">
	.st0{fill:#F7931E;stroke:#000000;stroke-miterlimit:10;}
	.st1{fill:#FFFFFF;}
	.st2{fill:#FFFFFF;stroke:#F7931E;stroke-width:4;stroke-miterlimit:10;}
</style>
<rect class="st0" width="1290" height="2796"/>
<path class="st1" d="M894.98,1651.72c-10.04,16.22-30.75,21.95-51.08,27.28c-0.59,0.41-0.93-0.78-0.24-0.72
	c10.03-2.51,17.68-7.32,23.81-14.59c6.72-7.58,9.84-18.01,16.03-25.24c2.73-3.34,8.58-3.24,11.36-0.36
	C898.4,1641.89,897.03,1646.8,894.98,1651.72z"/>
<path class="st1" d="M1009.61,1702.52c-3.38,3.26-7.36,4.89-11.94,4.89c-5.31,0-9.41-1.21-12.31-3.62c-2.9-2.41-4.34-5.31-4.34-8.69
	c0-1.93,0.24-3.49,0.72-4.71c0.48-1.2,1.02-2.29,1.63-3.26c0.6-0.96,1.14-1.93,1.63-2.9c0.48-0.96,0.72-2.17,0.72-3.62
	c0-3.13-0.97-5.49-2.9-7.06c-1.93-1.57-4.23-2.35-6.88-2.35c-1.45,0-3.14,0.24-5.07,0.72c-1.93,0.49-3.92,1.69-5.97,3.62
	c-2.05,1.93-4.16,4.7-6.33,8.32c-2.17,3.62-4.23,8.69-6.15,15.2v121.98c0,0.97,0.72,1.45,2.17,1.45h19.91
	c0.48,0,0.72,0.24,0.72,0.72c0,0.49-0.24,0.72-0.72,0.72h-76.73c-0.49,0-0.72-0.24-0.72-0.72c0-0.48,0.24-0.72,0.72-0.72h19.91
	c1.45,0,2.17-0.48,2.17-1.45V1672.3c0-0.72-0.72-1.09-2.17-1.09h-19.91c-0.49,0-0.72-0.24-0.72-0.72c0-0.48,0.24-0.72,0.72-0.72
	h53.57c0.72,0,1.09,0.36,1.09,1.09v23.89c3.38-10.37,7.84-17.67,13.39-21.9c5.55-4.22,12.18-6.33,19.91-6.33
	c8.44,0,15.38,2.11,20.81,6.33c5.43,4.22,8.14,10.2,8.14,17.92C1014.68,1695.34,1012.99,1699.26,1009.61,1702.52z"/>
<path class="st1" d="M1164.05,1631c-2.06,2.52-4.58,3.77-7.55,3.77c-3.21,0-5.72-0.91-7.55-2.74c-1.83-1.83-2.74-3.65-2.74-5.49
	c0-2.51,0.46-4.12,1.37-4.8c0.91-0.69,1.37-1.94,1.37-3.77c0-1.83-0.57-3.2-1.72-4.12c-1.15-0.91-2.63-1.37-4.46-1.37
	c-1.15,0-2.52,0.17-4.12,0.51c-1.6,0.34-3.26,1.09-4.97,2.23c-1.72,1.15-5.3,4.15-7.34,6.12c-2.02,1.95-4.86,4.05-7.17,7.95
	c3.43,4.58,6.18,9.72,8.23,15.44c2.06,5.72,3.09,11.66,3.09,17.84c0,7.55-1.49,14.7-4.46,21.44c-2.97,6.75-7.03,12.64-12.18,17.67
	c-5.15,5.03-11.15,8.98-18.01,11.83c-6.86,2.86-14.18,4.29-21.95,4.29c-8.69,0-16.75-1.83-24.18-5.49
	c-7.43-3.66-13.78-8.46-19.04-14.41c-3.21,2.29-5.89,5.15-8.06,8.58c-2.18,3.43-3.26,8.23-3.26,14.41c0,9.84,2.34,16.58,7.03,20.24
	c4.68,3.66,12.86,5.49,24.53,5.49h39.45c22.86,0,39.96,4.12,51.28,12.35c11.32,8.23,16.98,21.96,16.98,41.16
	c0,10.75-2.57,20.12-7.72,28.13c-5.15,8-11.72,14.75-19.72,20.24c-8.01,5.49-16.87,9.61-26.58,12.35
	c-9.72,2.74-19.15,4.12-28.3,4.12c-11.66,0-22.3-1.26-31.9-3.77c-9.6-2.52-17.78-5.89-24.53-10.12
	c-6.75-4.23-12.01-9.21-15.78-14.92c-3.77-5.72-5.66-11.78-5.66-18.18c0-4.8,0.91-9.55,2.74-14.24c1.83-4.69,4.29-9.09,7.37-13.21
	c3.09-4.12,6.74-7.66,10.98-10.63c4.23-2.97,8.86-5.15,13.89-6.52c-18.75-5.26-28.13-16.69-28.13-34.3
	c0-10.29,2.11-18.58,6.35-24.87c4.23-6.29,10.34-12.06,18.35-17.32c-3.89-4.57-6.92-9.78-9.09-15.61
	c-2.18-5.83-3.26-12.06-3.26-18.69c0-7.55,1.48-14.69,4.46-21.44c2.97-6.74,7.03-12.58,12.18-17.5c5.15-4.92,11.09-8.8,17.84-11.66
	c6.74-2.86,14.01-4.29,21.78-4.29c9.14,0,17.44,1.77,24.87,5.32c7.43,3.55,13.77,8.63,19.04,15.27
	c4.49-6.11,10.85-10.86,15.54-14.75c4.68-3.89,10.34-5.83,16.98-5.83c4.12,0,7.94,1.2,11.49,3.6c3.54,2.4,5.32,6.23,5.32,11.49
	C1167.14,1625.74,1166.11,1628.48,1164.05,1631z M1138.56,1799.25c-1.72-4.69-4.23-8.86-7.55-12.52c-3.32-3.66-7.38-6.52-12.18-8.58
	c-4.8-2.06-10.41-3.09-16.81-3.09h-54.2c-4.35,0-8.23-0.46-11.66-1.37c-4.35,2.74-7.89,7.49-10.63,14.24
	c-2.74,6.74-4.12,15.27-4.12,25.56c0,18.29,4.74,31.27,14.24,38.93c9.49,7.66,23.04,11.49,40.65,11.49c8.23,0,16.24-1.03,24.01-3.09
	c7.77-2.06,14.69-5.15,20.75-9.26c6.06-4.12,10.92-9.26,14.58-15.44c3.66-6.17,5.49-13.38,5.49-21.61
	C1141.13,1809.03,1140.27,1803.94,1138.56,1799.25z M1099.62,1631.34c-1.6-7.77-4.35-13.49-8.23-17.15
	c-2.52-2.28-5.15-3.77-7.89-4.46c-2.74-0.69-5.95-1.03-9.61-1.03c-3.43,0-6.52,0.34-9.26,1.03c-2.74,0.69-5.38,2.18-7.89,4.46
	c-3.89,3.66-6.64,9.38-8.23,17.15c-1.6,7.78-2.4,18.18-2.4,31.22c0,7.32,0.17,13.61,0.51,18.87c0.34,5.26,0.97,9.78,1.89,13.55
	c0.91,3.77,2.06,6.86,3.43,9.26c1.37,2.4,2.97,4.52,4.8,6.35c2.51,2.29,5.15,3.83,7.89,4.63c2.74,0.8,5.83,1.2,9.26,1.2
	c3.66,0,6.86-0.4,9.61-1.2c2.74-0.8,5.37-2.34,7.89-4.63c1.83-1.83,3.43-3.95,4.8-6.35c1.37-2.4,2.45-5.49,3.26-9.26
	c0.8-3.77,1.43-8.29,1.89-13.55c0.46-5.26,0.69-11.55,0.69-18.87C1102.02,1649.52,1101.22,1639.12,1099.62,1631.34z"/>
<path class="st1" d="M1183.32,1744.16h-13.37c-1.14,0-1.7-0.32-1.7-0.97V1642.3c0-0.49-0.16-0.73-0.49-0.73h-36.22
	c-0.33,0-0.49,0.16-0.49,0.49c0,0.33,0.16,0.49,0.49,0.49h13.37c0.97,0,1.46,0.33,1.46,0.97v99.67c0,0.65-0.49,0.97-1.46,0.97
	h-13.37c-0.33,0-0.49,0.16-0.49,0.49c0,0.33,0.16,0.49,0.49,0.49h51.78c0.32,0,0.49-0.16,0.49-0.49
	C1183.81,1744.32,1183.65,1744.16,1183.32,1744.16z"/>
<path class="st1" d="M1276.22,1821.32c-3.63,2.45-8.19,3.68-13.68,3.68c-6.28,0-11.52-1.76-15.73-5.29
	c-4.22-3.53-6.81-8.13-7.79-13.82c-1.96,6.28-5.93,11.03-11.91,14.26c-5.98,3.24-12.89,4.85-20.73,4.85c-4.9,0-9.7-0.54-14.41-1.62
	c-4.7-1.08-8.97-2.79-12.79-5.15c-3.82-2.35-6.91-5.49-9.26-9.41c-2.35-3.92-3.53-8.82-3.53-14.7c0-7.65,1.47-13.87,4.41-18.67
	c2.94-4.8,6.47-8.53,10.59-11.18c4.12-2.65,8.33-4.46,12.64-5.44c4.31-0.98,7.94-1.66,10.88-2.06c4.12-0.39,8.09-0.78,11.91-1.18
	c3.82-0.39,7.3-0.88,10.44-1.47c3.13-0.59,5.63-1.37,7.5-2.35c1.86-0.98,2.79-2.25,2.79-3.82v-22.35c0-5.88-0.59-10.73-1.76-14.56
	c-1.18-3.82-2.75-6.91-4.71-9.26c-1.96-2.35-4.22-3.97-6.76-4.85c-2.55-0.88-5.1-1.32-7.64-1.32c-3.73,0-6.91,1.13-9.56,3.38
	c-2.65,2.26-3.97,5.93-3.97,11.03c0,2.35,0.39,4.22,1.18,5.59c0.78,1.37,1.18,3.24,1.18,5.59c0,2.75-1.03,5.15-3.09,7.2
	c-2.06,2.06-5.44,3.09-10.15,3.09c-4.32,0-7.4-1.37-9.26-4.12c-1.87-2.74-2.79-5.78-2.79-9.12c0-2.55,0.83-5.24,2.5-8.09
	c1.66-2.84,4.07-5.44,7.2-7.79c3.13-2.35,6.96-4.26,11.47-5.73c4.51-1.47,9.6-2.21,15.29-2.21c15.09,0,26.76,4.26,34.99,12.79
	c8.23,8.53,12.35,22.01,12.35,40.44v63.23c0,6.67,2.55,10,7.65,10c2.55,0,4.8-0.88,6.76-2.65c1.96-1.77,3.13-3.43,3.53-5
	c0.19-0.39,0.49-0.54,0.88-0.44c0.39,0.1,0.49,0.34,0.29,0.74C1282.15,1816.28,1279.84,1818.87,1276.22,1821.32z M1237.55,1751.77
	c-3.34,2.16-7.6,3.48-12.79,3.97c-5.2,0.49-9.95,1.23-14.26,2.21c-2.35,0.39-4.66,1.23-6.91,2.5c-2.26,1.28-4.22,3.29-5.88,6.03
	c-1.67,2.75-2.99,6.37-3.97,10.88c-0.98,4.51-1.47,10.1-1.47,16.76c0,6.28,0.59,11.32,1.76,15.15s2.69,6.72,4.56,8.67
	c1.86,1.96,3.92,3.24,6.18,3.82c2.25,0.59,4.56,0.88,6.91,0.88c7.25,0,13.38-2.06,18.38-6.18c5-4.12,7.5-8.92,7.5-14.41V1751.77z"/>
<g>
	<path class="st1" d="M808.76,1693.33l-90.18,0l0,7.83c0,9.39,0.21,17.43,0.63,24.11c0.42,6.68,1.15,12.37,2.21,17.06
		c1.05,4.7,2.41,8.61,4.1,11.74c1.68,3.13,3.78,5.85,6.31,8.14c2.94,2.72,6.25,4.59,9.93,5.64c3.68,1.04,7.62,1.57,11.82,1.57
		c11.35,0,21.44-2.66,30.27-7.98c8.83-5.32,15.97-12.37,21.44-21.13c0.21-0.2,0.47-0.26,0.79-0.16c0.32,0.11,0.36,0.37,0.16,0.78
		c-5.89,8.98-13.35,16.18-22.39,21.6c-9.04,5.43-19.13,8.14-30.27,8.14c-9.04,0-17.5-1.83-25.38-5.48
		c-7.88-3.65-14.72-8.61-20.5-14.87c-5.78-6.26-10.36-13.62-13.72-22.08c-3.36-8.45-5.04-17.48-5.04-27.08
		c0-9.6,1.68-18.63,5.05-27.08c3.36-8.45,7.93-15.81,13.72-22.07c5.78-6.26,12.61-11.22,20.5-14.87c7.88-3.65,16.34-5.48,25.38-5.48
		c9.88,0,18.34,2.09,25.38,6.26c7.04,4.18,12.87,9.29,17.5,15.34c4.62,6.06,7.99,12.63,10.09,19.73c2.1,7.1,3.15,13.57,3.15,19.41
		C809.7,1693.02,809.39,1693.33,808.76,1693.33z M779.27,1658.89c-1.58-8.35-4.15-14.61-7.73-18.79c-2.52-2.71-5.26-4.59-8.2-5.64
		c-2.95-1.04-6.2-1.57-9.77-1.57c-4.21,0-8.15,0.52-11.82,1.57c-3.68,1.05-6.99,2.93-9.93,5.64c-4.41,4.18-7.57,10.44-9.46,18.79
		c-1.89,8.35-3.05,19.41-3.47,33.19l63.38,0C781.84,1678.3,780.85,1667.24,779.27,1658.89z"/>
</g>
<g>
	<path class="st1" d="M903.09,1782.58c-3.11,8.07-7.38,15.12-12.82,21.15c-5.44,6.04-11.77,10.79-19,14.25
		c-7.23,3.46-14.97,5.2-23.21,5.2s-15.98-1.73-23.21-5.2c-7.23-3.46-13.53-8.21-18.91-14.25c-5.38-6.03-9.62-13.09-12.73-21.15
		c-3.11-8.07-4.66-16.7-4.66-25.9c0-8.96,1.46-17.48,4.39-25.54c2.93-8.07,7.05-15.15,12.37-21.24
		c5.32-6.09,11.62-10.93,18.91-14.52c7.29-3.59,15.24-5.38,23.84-5.38c8.25,0,15.98,1.73,23.21,5.2c7.23,3.47,13.56,8.22,19,14.25
		c5.44,6.04,9.71,13.12,12.82,21.24c3.11,8.13,4.66,16.79,4.66,25.99C907.75,1765.88,906.19,1774.51,903.09,1782.58z
		 M880.41,1718.58c-2.33-9.5-5.83-16.46-10.49-20.88c-2.87-2.75-6.13-4.6-9.77-5.56c-3.65-0.96-7.68-1.43-12.1-1.43
		c-4.3,0-8.28,0.48-11.92,1.43c-3.65,0.96-6.9,2.81-9.77,5.56c-4.66,4.42-8.16,11.38-10.49,20.88c-2.33,9.5-3.5,22.2-3.5,38.09
		c0,9.08,0.3,16.85,0.9,23.3c0.6,6.45,1.46,11.95,2.6,16.49c1.13,4.54,2.57,8.34,4.3,11.38c1.73,3.05,3.79,5.65,6.18,7.8
		c2.87,2.63,6.12,4.45,9.77,5.47c3.64,1.01,7.62,1.52,11.92,1.52c4.42,0,8.45-0.51,12.1-1.52c3.64-1.01,6.9-2.84,9.77-5.47
		c2.27-2.15,4.3-4.75,6.09-7.8s3.25-6.84,4.39-11.38c1.13-4.54,2-10.04,2.6-16.49c0.6-6.45,0.9-14.22,0.9-23.3
		C883.91,1740.78,882.74,1728.08,880.41,1718.58z"/>
</g>
<path class="st1" d="M715.19,1633.16c-2.06,2.52-4.58,3.77-7.55,3.77c-3.21,0-5.72-0.91-7.55-2.74c-1.83-1.83-2.74-3.65-2.74-5.49
	c0-2.51,0.46-4.12,1.37-4.8c0.91-0.69,1.37-1.94,1.37-3.77c0-1.83-0.57-3.2-1.72-4.12c-1.15-0.91-2.63-1.37-4.46-1.37
	c-1.15,0-2.52,0.17-4.12,0.51c-1.6,0.34-3.26,1.09-4.97,2.23c-1.72,1.15-5.3,4.15-7.34,6.12c-2.02,1.95-4.86,4.05-7.17,7.95
	c3.43,4.58,6.17,9.72,8.23,15.44c2.06,5.72,3.09,11.66,3.09,17.84c0,7.55-1.49,14.7-4.46,21.44c-2.97,6.75-7.03,12.64-12.18,17.67
	c-5.15,5.03-11.15,8.98-18.01,11.83c-6.86,2.86-14.18,4.29-21.95,4.29c-8.69,0-16.75-1.83-24.18-5.49
	c-7.43-3.66-13.78-8.46-19.04-14.41c-3.21,2.29-5.89,5.15-8.06,8.58c-2.18,3.43-3.26,8.23-3.26,14.41c0,9.84,2.34,16.58,7.03,20.24
	c4.68,3.66,12.86,5.49,24.53,5.49h39.45c22.86,0,39.96,4.12,51.28,12.35c11.32,8.23,16.98,21.96,16.98,41.16
	c0,10.75-2.57,20.12-7.72,28.13c-5.15,8-11.72,14.75-19.72,20.24c-8.01,5.49-16.87,9.61-26.58,12.35
	c-9.72,2.74-19.15,4.12-28.3,4.12c-11.66,0-22.3-1.26-31.9-3.77c-9.6-2.52-17.78-5.89-24.53-10.12
	c-6.75-4.23-12.01-9.21-15.78-14.92c-3.77-5.72-5.66-11.78-5.66-18.18c0-4.8,0.91-9.55,2.74-14.24c1.83-4.69,4.29-9.09,7.37-13.21
	c3.09-4.12,6.74-7.66,10.98-10.63c4.23-2.97,8.86-5.15,13.89-6.52c-18.75-5.26-28.13-16.69-28.13-34.3
	c0-10.29,2.11-18.58,6.35-24.87c4.23-6.29,10.34-12.06,18.35-17.32c-3.89-4.57-6.92-9.78-9.09-15.61
	c-2.18-5.83-3.26-12.06-3.26-18.69c0-7.55,1.48-14.69,4.46-21.44c2.97-6.74,7.03-12.58,12.18-17.5c5.15-4.92,11.09-8.8,17.84-11.66
	c6.74-2.86,14.01-4.29,21.78-4.29c9.14,0,17.44,1.77,24.87,5.32c7.43,3.55,13.77,8.63,19.04,15.27
	c4.49-6.11,10.85-10.86,15.54-14.75c4.68-3.89,10.34-5.83,16.98-5.83c4.12,0,7.94,1.2,11.49,3.6c3.54,2.4,5.32,6.23,5.32,11.49
	C718.28,1627.91,717.25,1630.65,715.19,1633.16z M689.7,1801.42c-1.72-4.69-4.23-8.86-7.55-12.52c-3.32-3.66-7.38-6.52-12.18-8.58
	c-4.8-2.06-10.41-3.09-16.81-3.09h-54.2c-4.35,0-8.23-0.46-11.66-1.37c-4.35,2.74-7.89,7.49-10.63,14.24
	c-2.74,6.74-4.12,15.27-4.12,25.56c0,18.29,4.74,31.27,14.24,38.93c9.49,7.66,23.04,11.49,40.65,11.49c8.23,0,16.24-1.03,24.01-3.09
	c7.77-2.06,14.69-5.15,20.75-9.26c6.06-4.12,10.92-9.26,14.58-15.44c3.66-6.17,5.49-13.38,5.49-21.61
	C692.27,1811.2,691.42,1806.11,689.7,1801.42z M650.77,1633.51c-1.6-7.77-4.35-13.49-8.23-17.15c-2.52-2.28-5.15-3.77-7.89-4.46
	c-2.74-0.69-5.95-1.03-9.61-1.03c-3.43,0-6.52,0.34-9.26,1.03c-2.74,0.69-5.38,2.18-7.89,4.46c-3.89,3.66-6.64,9.38-8.23,17.15
	c-1.6,7.78-2.4,18.18-2.4,31.22c0,7.32,0.17,13.61,0.51,18.87c0.34,5.26,0.97,9.78,1.89,13.55c0.91,3.77,2.06,6.86,3.43,9.26
	c1.37,2.4,2.97,4.52,4.8,6.35c2.51,2.29,5.15,3.83,7.89,4.63c2.74,0.8,5.83,1.2,9.26,1.2c3.66,0,6.86-0.4,9.61-1.2
	c2.74-0.8,5.37-2.34,7.89-4.63c1.83-1.83,3.43-3.95,4.8-6.35c1.37-2.4,2.45-5.49,3.26-9.26c0.8-3.77,1.43-8.29,1.89-13.55
	c0.46-5.26,0.69-11.55,0.69-18.87C653.17,1651.69,652.36,1641.28,650.77,1633.51z"/>
<g>
	<path class="st2" d="M971.87,187.47c-154.65-3.6-283.14,138.01-342.76,205.96c-4.26,4.9-14.17-13.98-58.71-52.11
		c-21.16-18.13-42.87-35.88-65.95-51.42C348.87,185.1,176.39,140.89-9.9,153.87c-22.66,1.58-44.94,3.91-66.84,7.01v71.61
		c4.08,0.51,8.17,1.07,12.28,1.68c422.87,54.28,718.39,464.91,755.89,862.17c60.84,520.06-387.7,728.13-768.17,552.5v117.45
		c32.02,5.29,64.38,9.17,96.97,12.4c-8.56,1.49-17.11,3.11-25.7,4.4c-23.75,3.74-47.51,7.44-71.27,11.13v26.86
		c81.98-13.52,163.93-27.23,245.37-43.52c336.04-67.19,565.36-262.03,664.36-591.86c82.48-274.85,0-547.81-182.66-769.26
		c29.16-30.7,59.95-84.66,116.85-87.44c131.87-6.47,217.63,190.17,316.29,167.97c51.17-11.5,84.82-74.12,86.72-122.49
		C1173.76,283.98,1067.67,189.7,971.87,187.47z"/>
	<path class="st2" d="M881.8,1928.9c-138.78-56.18-276.62-46.39-413.16,8.56c-100.15,40.31-189.43,99.6-278.65,159.14
		c-88.62,59.14-176.69,119.26-266.72,176.16v264.67c50-43.67,92.96-94.8,132.02-150.18c4.84-6.91,17.64-29.82,23.3-37.69
		c4.24,5.58,6.58,8.58,8.8,11.64c120.7,165.08,276.31,274.94,477.71,302.53c161.97,22.2,308.26-14.77,429.34-128.49
		C1182.32,2358.76,1149.69,2037.33,881.8,1928.9z M805.83,2531.46c-55.66,54.61-122.54,93.24-198.89,97.42
		c-26.52,1.46-53.21-0.17-69.06-0.3c-168.71-19.23-298.46-110.02-400.75-229.35c-14.83-17.28-28.48-35.66-41.71-54.23
		c-2.81-3.96-3.91-12.52-1.54-16.29c68.7-109.45,144.39-213.12,249.68-291.11c64.99-48.15,136.46-80.56,219-81.99
		c172.92-3,312.93,117.43,334.94,290.1C911.35,2354.42,886.25,2452.58,805.83,2531.46z"/>
</g>
</svg>
